# xmcd
#
# Track frame offsets:
#	150
#	17495
#	38817
#	58120
#	75255
#	88465
#	101865
#	115755
#	130650
#	141737
#	152862
#	173102
#	188722
#	201407
#	217825
#
# Disc length: 3062 seconds
#
# Revision: 1
# Processed by: cddbd v1.4PL0 Copyright (c) Steve Scherf et al.
# Submitted via: audiograbber 1.80.04
#
DISCID=d10bf40f
DTITLE=Adi Hirschall/Wolfgang Böck - Oide Hawara
DYEAR=1900
DGENRE=
TTITLE0=Vier Brüada
TTITLE1=Oide Hawara
TTITLE2=Der Wein is a Luada
TTITLE3=Wannsd frank wern wüst
TTITLE4=Schwoazaugat´s Dirnd´l
TTITLE5=Der schönste Mann von Wien
TTITLE6=Mir is alles ans
TTITLE7=In der Vorstadt
TTITLE8=Meter G´stanzeln
TTITLE9=Wia du ane bist
TTITLE10=Erst wann´s aus wird sein
TTITLE11=Der erste Schnee
TTITLE12=Seltene Reime
TTITLE13=Es is so schön mit an Freund alt zu werd´n
TTITLE14=Wann i amoi stirb
EXTD=
EXTT0=
EXTT1=
EXTT2=
EXTT3=
EXTT4=
EXTT5=
EXTT6=
EXTT7=
EXTT8=
EXTT9=
EXTT10=
EXTT11=
EXTT12=
EXTT13=
EXTT14=
PLAYORDER=
